<svg width="624" height="52" xmlns="http://www.w3.org/2000/svg" xmlns:xlink="http://www.w3.org/1999/xlink" xml:space="preserve" overflow="hidden"><defs><clipPath id="clip0"><rect x="0" y="0" width="624" height="52"/></clipPath><clipPath id="clip1"><rect x="0" y="0" width="624" height="52"/></clipPath></defs><g clip-path="url(#clip0)"><g clip-path="url(#clip1)"><path d="M14.92 11.7228 60.3904 11.7228 60.3904 57.1932 14.92 57.1932Z" fill="#993300" fill-rule="evenodd" fill-opacity="1" transform="matrix(1.01538 0 0 1 -15.1495 -11.7228)"/><text fill="#FFFFFF" fill-opacity="1" font-family="Arial,Arial_MSFontService,sans-serif" font-style="normal" font-variant="normal" font-weight="700" font-stretch="normal" font-size="144" text-anchor="start" direction="ltr" writing-mode="lr-tb" unicode-bidi="normal" text-decoration="none" transform="matrix(0.360703 0 0 0.355237 4.80816 41)">P</text><path d="M65.7189 12.0781 111.189 12.0781 111.189 57.5485 65.7189 57.5485Z" fill="#333300" fill-rule="evenodd" fill-opacity="1" transform="matrix(1.01538 0 0 1 -16.1887 -12.0781)"/><text fill="#FFFFFF" fill-opacity="1" font-family="Arial,Arial_MSFontService,sans-serif" font-style="normal" font-variant="normal" font-weight="700" font-stretch="normal" font-size="144" text-anchor="start" direction="ltr" writing-mode="lr-tb" unicode-bidi="normal" text-decoration="none" transform="matrix(0.360703 0 0 0.355237 54.1985 41)">R</text><path d="M116.518 12.0781 161.988 12.0781 161.988 57.5485 116.518 57.5485Z" fill="#660033" fill-rule="evenodd" fill-opacity="1" transform="matrix(1.01538 0 0 1 -17.232 -12.0781)"/><text fill="#FFFFFF" fill-opacity="1" font-family="Arial,Arial_MSFontService,sans-serif" font-style="normal" font-variant="normal" font-weight="700" font-stretch="normal" font-size="144" text-anchor="start" direction="ltr" writing-mode="lr-tb" unicode-bidi="normal" text-decoration="none" transform="matrix(0.360703 0 0 0.343273 107.171 40)">S</text><path d="M3.78767 0 3.78767-36.6483 11.1071-36.6483 19.7573-10.6976C20.5763-8.29194 21.1393-6.44928 21.4976-5.27203 21.9583-6.60284 22.5725-8.54786 23.4426-11.1583L32.2464-36.6483 38.7469-36.6483 38.7469 0 34.0891 0 34.0891-30.6597 23.4426 0 19.0919 0 8.49668-31.1715 8.49668 0 3.78767 0Z" fill="#000000" fill-rule="nonzero" fill-opacity="1" transform="matrix(1.01538 0 0 1 159.36 40.9239)"/><path d="M20.6787-3.27583C19.0407-1.84265 17.4028-0.870142 15.8673-0.255924 14.3317 0.307109 12.6938 0.614218 10.9024 0.614218 7.98483 0.614218 5.78388-0.10237 4.19715-1.53554 2.61042-2.96872 1.84265-4.76019 1.84265-7.01232 1.84265-8.29194 2.14976-9.46919 2.71279-10.5441 3.32701-11.6189 4.09478-12.4891 5.06729-13.1545 6.03981-13.8199 7.11469-14.2806 8.29194-14.6389 9.16208-14.8436 10.4929-15.0995 12.2844-15.3043 15.9185-15.7137 18.5801-16.2256 20.3204-16.8398 20.3204-17.454 20.3204-17.8635 20.3204-18.017 20.3204-19.8597 19.9109-21.1393 19.0919-21.9071 17.9147-22.9308 16.2256-23.4426 13.9223-23.4426 11.8237-23.4426 10.2881-23.0332 9.26445-22.3166 8.24075-21.5488 7.52416-20.2692 7.01232-18.3753L2.61042-18.9896C3.0199-20.8322 3.68531-22.3678 4.60663-23.545 5.52796-24.6711 6.85876-25.5924 8.54786-26.2066 10.2881-26.8208 12.3355-27.1279 14.5877-27.1279 16.8398-27.1279 18.6825-26.872 20.1156-26.3602 21.5488-25.7971 22.5725-25.1317 23.2379-24.3128 23.9033-23.545 24.364-22.5213 24.6199-21.2929 24.7734-20.5251 24.8758-19.1431 24.8758-17.0957L24.8758-11.1071C24.8758-6.96113 24.9782-4.29952 25.1317-3.17346 25.3365-2.09858 25.746-1.0237 26.309 0L21.6 0C21.1393-0.921326 20.8322-2.04739 20.6787-3.27583ZM20.3204-13.308C18.6825-12.6426 16.2256-12.0796 12.9498-11.6189 11.1071-11.363 9.82748-11.0559 9.05971-10.6976 8.29194-10.3905 7.67772-9.87867 7.26824-9.26445 6.85876-8.59905 6.65402-7.88246 6.65402-7.11469 6.65402-5.93744 7.11469-4.91374 7.98483-4.14597 8.90615-3.32701 10.237-2.91753 11.9772-2.91753 13.7175-2.91753 15.2531-3.32701 16.6351-4.0436 17.9659-4.81137 18.9384-5.83507 19.6038-7.16587 20.0644-8.18957 20.3204-9.67393 20.3204-11.6701L20.3204-13.308Z" fill="#000000" fill-rule="nonzero" fill-opacity="1" transform="matrix(1.01538 0 0 1 202.652 40.9239)"/><path d="M3.3782 0 3.3782-26.5649 7.42179-26.5649 7.42179-22.7772C9.36682-25.6948 12.182-27.1279 15.8673-27.1279 17.454-27.1279 18.9384-26.872 20.2692-26.2578 21.6-25.6948 22.6237-24.927 23.2891-24.0057 23.9545-23.0843 24.4151-21.9583 24.6711-20.6787 24.8758-19.8597 24.927-18.4265 24.927-16.3279L24.927 0 20.4227 0 20.4227-16.1232C20.4227-17.9659 20.2692-19.3479 19.9109-20.2692 19.5526-21.1393 18.9384-21.9071 18.0682-22.4189 17.1469-22.982 16.1232-23.2379 14.946-23.2379 13.0009-23.2379 11.363-22.6237 9.98103-21.3952 8.54786-20.218 7.88246-17.9147 7.88246-14.4853L7.88246 0 3.3782 0Z" fill="#000000" fill-rule="nonzero" fill-opacity="1" transform="matrix(1.01538 0 0 1 231.558 40.9239)"/><path d="M20.6787-3.27583C19.0407-1.84265 17.4028-0.870142 15.8673-0.255924 14.3317 0.307109 12.6938 0.614218 10.9024 0.614218 7.98483 0.614218 5.78388-0.10237 4.19715-1.53554 2.61042-2.96872 1.84265-4.76019 1.84265-7.01232 1.84265-8.29194 2.14976-9.46919 2.71279-10.5441 3.32701-11.6189 4.09478-12.4891 5.06729-13.1545 6.03981-13.8199 7.11469-14.2806 8.29194-14.6389 9.16208-14.8436 10.4929-15.0995 12.2844-15.3043 15.9185-15.7137 18.5801-16.2256 20.3204-16.8398 20.3204-17.454 20.3204-17.8635 20.3204-18.017 20.3204-19.8597 19.9109-21.1393 19.0919-21.9071 17.9147-22.9308 16.2256-23.4426 13.9223-23.4426 11.8237-23.4426 10.2881-23.0332 9.26445-22.3166 8.24075-21.5488 7.52416-20.2692 7.01232-18.3753L2.61042-18.9896C3.0199-20.8322 3.68531-22.3678 4.60663-23.545 5.52796-24.6711 6.85876-25.5924 8.54786-26.2066 10.2881-26.8208 12.3355-27.1279 14.5877-27.1279 16.8398-27.1279 18.6825-26.872 20.1156-26.3602 21.5488-25.7971 22.5725-25.1317 23.2379-24.3128 23.9033-23.545 24.364-22.5213 24.6199-21.2929 24.7734-20.5251 24.8758-19.1431 24.8758-17.0957L24.8758-11.1071C24.8758-6.96113 24.9782-4.29952 25.1317-3.17346 25.3365-2.09858 25.746-1.0237 26.309 0L21.6 0C21.1393-0.921326 20.8322-2.04739 20.6787-3.27583ZM20.3204-13.308C18.6825-12.6426 16.2256-12.0796 12.9498-11.6189 11.1071-11.363 9.82748-11.0559 9.05971-10.6976 8.29194-10.3905 7.67772-9.87867 7.26824-9.26445 6.85876-8.59905 6.65402-7.88246 6.65402-7.11469 6.65402-5.93744 7.11469-4.91374 7.98483-4.14597 8.90615-3.32701 10.237-2.91753 11.9772-2.91753 13.7175-2.91753 15.2531-3.32701 16.6351-4.0436 17.9659-4.81137 18.9384-5.83507 19.6038-7.16587 20.0644-8.18957 20.3204-9.67393 20.3204-11.6701L20.3204-13.308Z" fill="#000000" fill-rule="nonzero" fill-opacity="1" transform="matrix(1.01538 0 0 1 260.463 40.9239)"/><path d="M2.55924 2.20095 6.90995 2.86635C7.11469 4.19715 7.62653 5.16966 8.44549 5.78388 9.57156 6.65402 11.1071 7.0635 13.0009 7.0635 15.0995 7.0635 16.6862 6.65402 17.8635 5.78388 18.9896 4.96493 19.7573 3.78767 20.1668 2.30332 20.3715 1.38199 20.4739-0.563033 20.4739-3.48057 18.4777-1.17725 16.072 0 13.1033 0 9.46919 0 6.65402-1.3308 4.65782-3.94123 2.66161-6.60284 1.63791-9.72511 1.63791-13.4104 1.63791-15.9697 2.09858-18.273 3.0199-20.4227 3.94123-22.5725 5.27203-24.2104 7.01232-25.3877 8.7526-26.5649 10.8-27.1279 13.1545-27.1279 16.2768-27.1279 18.836-25.8995 20.8834-23.3403L20.8834-26.5649 25.0294-26.5649 25.0294-3.58294C25.0294 0.511848 24.6199 3.48057 23.8009 5.16966 22.9308 6.90995 21.6 8.29194 19.7573 9.26445 17.9659 10.2881 15.7137 10.7488 13.0521 10.7488 9.87867 10.7488 7.31943 10.0834 5.3744 8.65023 3.42938 7.21706 2.50805 5.06729 2.55924 2.20095ZM6.29573-13.7687C6.29573-10.2881 6.96113-7.7289 8.34312-6.14218 9.72511-4.50426 11.4654-3.73649 13.564-3.73649 15.6114-3.73649 17.3516-4.50426 18.7336-6.09099 20.1668-7.67772 20.8322-10.1858 20.8322-13.6152 20.8322-16.8398 20.1156-19.2967 18.6825-20.9346 17.2493-22.5725 15.509-23.4426 13.4616-23.4426 11.4654-23.4426 9.7763-22.6237 8.39431-20.9858 6.96113-19.3479 6.29573-16.9422 6.29573-13.7687Z" fill="#000000" fill-rule="nonzero" fill-opacity="1" transform="matrix(1.01538 0 0 1 289.366 40.9239)"/><path d="M21.5488-8.54786 26.2066-7.98483C25.4388-5.27203 24.108-3.17346 22.1118-1.63791 20.1156-0.153554 17.6076 0.614218 14.5365 0.614218 10.6464 0.614218 7.57535-0.614218 5.27203-2.96872 3.0199-5.3744 1.89384-8.7526 1.89384-13.0521 1.89384-17.5052 3.0199-20.9858 5.32322-23.4426 7.62653-25.8995 10.5953-27.1279 14.2806-27.1279 17.8123-27.1279 20.7298-25.9507 22.982-23.4938 25.2341-21.0881 26.3602-17.7099 26.3602-13.308 26.3602-13.0521 26.309-12.6426 26.309-12.1308L6.50047-12.1308C6.70521-9.21326 7.52416-6.96113 9.00852-5.42559 10.4929-3.89004 12.3355-3.12227 14.5365-3.12227 16.1744-3.12227 17.6076-3.53175 18.7848-4.40189 19.9109-5.27203 20.8834-6.65402 21.5488-8.54786ZM6.75639-15.8161 21.6-15.8161C21.3952-18.0682 20.8322-19.7061 19.9109-20.8322 18.4777-22.5725 16.5839-23.4426 14.3317-23.4426 12.2332-23.4426 10.4929-22.726 9.11089-21.3441 7.67772-19.9621 6.90995-18.1194 6.75639-15.8161Z" fill="#000000" fill-rule="nonzero" fill-opacity="1" transform="matrix(1.01538 0 0 1 318.271 40.9239)"/><path d="M20.5763 0 20.5763-3.32701C18.8872-0.716587 16.4303 0.614218 13.1545 0.614218 11.0559 0.614218 9.11089 0 7.31943-1.12607 5.57914-2.30332 4.19715-3.94123 3.22464-6.03981 2.25213-8.13838 1.74028-10.5441 1.74028-13.2569 1.74028-15.9185 2.20095-18.3242 3.07109-20.4739 3.94123-22.6237 5.27203-24.2616 7.0635-25.4388 8.80379-26.5649 10.8-27.1279 12.9498-27.1279 14.5877-27.1279 16.0208-26.8208 17.2493-26.1042 18.4777-25.4388 19.5014-24.5687 20.2692-23.4938L20.2692-36.6483 24.7734-36.6483 24.7734 0 20.5763 0ZM6.3981-13.2569C6.3981-9.82748 7.11469-7.31943 8.54786-5.63033 9.92985-3.94123 11.6701-3.12227 13.6152-3.12227 15.5602-3.12227 17.2493-3.89004 18.6313-5.52796 19.9621-7.11469 20.6787-9.57156 20.6787-12.8474 20.6787-16.4815 19.9621-19.1943 18.5801-20.8834 17.1469-22.5725 15.4578-23.4426 13.4104-23.4426 11.4142-23.4426 9.72511-22.6237 8.39431-20.9858 7.0635-19.3479 6.3981-16.7374 6.3981-13.2569Z" fill="#000000" fill-rule="nonzero" fill-opacity="1" transform="matrix(1.01538 0 0 1 347.176 40.9239)"/><path d="M2.30332-11.7725 6.85876-12.182C7.11469-10.3393 7.57535-8.85497 8.39431-7.67772 9.16208-6.50047 10.3905-5.52796 12.0796-4.81137 13.7175-4.09478 15.6114-3.73649 17.7099-3.73649 19.5526-3.73649 21.1905-3.99241 22.5725-4.55545 24.0057-5.11848 25.0806-5.83507 25.746-6.80758 26.4625-7.78009 26.7696-8.80379 26.7696-9.92985 26.7696-11.1071 26.4625-12.0796 25.7971-12.9498 25.1317-13.8199 24.0057-14.5365 22.4701-15.0995 21.4976-15.509 19.3479-16.1232 15.9697-16.891 12.5915-17.7099 10.237-18.4777 8.90615-19.1943 7.16587-20.1156 5.83507-21.2417 4.96493-22.6237 4.14597-23.9545 3.68531-25.49 3.68531-27.1791 3.68531-29.0218 4.24834-30.7621 5.27203-32.3488 6.34691-33.9355 7.83127-35.164 9.87867-36.0341 11.8749-36.8531 14.127-37.2625 16.5839-37.2625 19.2967-37.2625 21.7024-36.8019 23.8009-35.9317 25.8483-35.0616 27.4351-33.782 28.5611-32.0929 29.6872-30.4038 30.3014-28.4587 30.3526-26.309L25.6948-25.9507C25.49-28.3052 24.6199-30.0455 23.1867-31.2227 21.7535-32.4 19.6038-33.0142 16.7886-33.0142 13.8711-33.0142 11.7213-32.4512 10.3905-31.3763 9.05971-30.3014 8.39431-29.0218 8.39431-27.4862 8.39431-26.1554 8.85497-25.0806 9.7763-24.2616 10.7488-23.3915 13.1545-22.5213 17.0957-21.6512 21.037-20.7298 23.7497-19.9621 25.2341-19.2967 27.3327-18.3242 28.9194-17.0445 29.9431-15.5602 30.9668-14.0246 31.4786-12.3355 31.4786-10.3393 31.4786-8.39431 30.9156-6.55165 29.7896-4.81137 28.6635-3.12227 27.0768-1.79147 24.9782-0.818957 22.8796 0.153554 20.5251 0.614218 17.9147 0.614218 14.5877 0.614218 11.8237 0.153554 9.57156-0.818957 7.31943-1.79147 5.57914-3.22464 4.29952-5.16966 3.0199-7.11469 2.3545-9.31563 2.30332-11.7725Z" fill="#000000" fill-rule="nonzero" fill-opacity="1" transform="matrix(1.01538 0 0 1 390.52 40.9239)"/><path d="M21.5488-8.54786 26.2066-7.98483C25.4388-5.27203 24.108-3.17346 22.1118-1.63791 20.1156-0.153554 17.6076 0.614218 14.5365 0.614218 10.6464 0.614218 7.57535-0.614218 5.27203-2.96872 3.0199-5.3744 1.89384-8.7526 1.89384-13.0521 1.89384-17.5052 3.0199-20.9858 5.32322-23.4426 7.62653-25.8995 10.5953-27.1279 14.2806-27.1279 17.8123-27.1279 20.7298-25.9507 22.982-23.4938 25.2341-21.0881 26.3602-17.7099 26.3602-13.308 26.3602-13.0521 26.309-12.6426 26.309-12.1308L6.50047-12.1308C6.70521-9.21326 7.52416-6.96113 9.00852-5.42559 10.4929-3.89004 12.3355-3.12227 14.5365-3.12227 16.1744-3.12227 17.6076-3.53175 18.7848-4.40189 19.9109-5.27203 20.8834-6.65402 21.5488-8.54786ZM6.75639-15.8161 21.6-15.8161C21.3952-18.0682 20.8322-19.7061 19.9109-20.8322 18.4777-22.5725 16.5839-23.4426 14.3317-23.4426 12.2332-23.4426 10.4929-22.726 9.11089-21.3441 7.67772-19.9621 6.90995-18.1194 6.75639-15.8161Z" fill="#000000" fill-rule="nonzero" fill-opacity="1" transform="matrix(1.01538 0 0 1 425.184 40.9239)"/><path d="M3.32701 0 3.32701-26.5649 7.37061-26.5649 7.37061-22.5213C8.39431-24.4151 9.36682-25.6436 10.237-26.2578 11.1071-26.8208 12.0796-27.1279 13.1033-27.1279 14.6389-27.1279 16.1744-26.6673 17.7611-25.6948L16.1744-21.4976C15.0995-22.163 13.9734-22.4701 12.8986-22.4701 11.9261-22.4701 11.0047-22.2142 10.237-21.6 9.46919-21.037 8.90615-20.218 8.54786-19.1431 8.0872-17.5564 7.83127-15.8161 7.83127-13.8711L7.83127 0 3.32701 0Z" fill="#000000" fill-rule="nonzero" fill-opacity="1" transform="matrix(1.01538 0 0 1 454.089 40.9239)"/><path d="M10.7488 0 0.665402-26.5649 5.3744-26.5649 11.1071-10.6464C11.7213-8.90615 12.2844-7.16587 12.7962-5.32322 13.2057-6.70521 13.7687-8.39431 14.4853-10.3393L20.3715-26.5649 24.9782-26.5649 14.946 0 10.7488 0Z" fill="#000000" fill-rule="nonzero" fill-opacity="1" transform="matrix(1.01538 0 0 1 471.396 40.9239)"/><path d="M3.3782-31.4786 3.3782-36.6483 7.88246-36.6483 7.88246-31.4786 3.3782-31.4786ZM3.3782 0 3.3782-26.5649 7.88246-26.5649 7.88246 0 3.3782 0Z" fill="#000000" fill-rule="nonzero" fill-opacity="1" transform="matrix(1.01538 0 0 1 497.381 40.9239)"/><path d="M20.6787-9.72511 25.1317-9.16208C24.6199-6.09099 23.3915-3.73649 21.3952-1.99621 19.399-0.255924 16.9934 0.614218 14.0758 0.614218 10.4417 0.614218 7.52416-0.563033 5.32322-2.96872 3.12227-5.32322 1.99621-8.7526 1.99621-13.1545 1.99621-16.0208 2.45687-18.5289 3.42938-20.6787 4.35071-22.8284 5.83507-24.4663 7.78009-25.5412 9.72511-26.6161 11.8237-27.1279 14.0758-27.1279 16.9934-27.1279 19.3479-26.4114 21.1905-24.9782 22.982-23.4938 24.1592-21.4464 24.6711-18.7336L20.3204-18.0682C19.9109-19.8597 19.1431-21.1905 18.1194-22.1118 17.0445-22.982 15.7649-23.4426 14.2806-23.4426 12.0284-23.4426 10.1858-22.6237 8.7526-20.9858 7.31943-19.399 6.60284-16.7886 6.60284-13.308 6.60284-9.72511 7.31943-7.11469 8.65023-5.52796 10.0322-3.89004 11.8237-3.12227 14.0246-3.12227 15.7649-3.12227 17.2493-3.63412 18.4265-4.709 19.6038-5.78388 20.3715-7.47298 20.6787-9.72511Z" fill="#000000" fill-rule="nonzero" fill-opacity="1" transform="matrix(1.01538 0 0 1 508.928 40.9239)"/><path d="M21.5488-8.54786 26.2066-7.98483C25.4388-5.27203 24.108-3.17346 22.1118-1.63791 20.1156-0.153554 17.6076 0.614218 14.5365 0.614218 10.6464 0.614218 7.57535-0.614218 5.27203-2.96872 3.0199-5.3744 1.89384-8.7526 1.89384-13.0521 1.89384-17.5052 3.0199-20.9858 5.32322-23.4426 7.62653-25.8995 10.5953-27.1279 14.2806-27.1279 17.8123-27.1279 20.7298-25.9507 22.982-23.4938 25.2341-21.0881 26.3602-17.7099 26.3602-13.308 26.3602-13.0521 26.309-12.6426 26.309-12.1308L6.50047-12.1308C6.70521-9.21326 7.52416-6.96113 9.00852-5.42559 10.4929-3.89004 12.3355-3.12227 14.5365-3.12227 16.1744-3.12227 17.6076-3.53175 18.7848-4.40189 19.9109-5.27203 20.8834-6.65402 21.5488-8.54786ZM6.75639-15.8161 21.6-15.8161C21.3952-18.0682 20.8322-19.7061 19.9109-20.8322 18.4777-22.5725 16.5839-23.4426 14.3317-23.4426 12.2332-23.4426 10.4929-22.726 9.11089-21.3441 7.67772-19.9621 6.90995-18.1194 6.75639-15.8161Z" fill="#000000" fill-rule="nonzero" fill-opacity="1" transform="matrix(1.01538 0 0 1 534.915 40.9239)"/><path d="M1.58673-7.93364 6.03981-8.59905C6.29573-6.85876 6.96113-5.47677 8.0872-4.50426 9.26445-3.58294 10.8512-3.12227 12.8986-3.12227 14.946-3.12227 16.4815-3.53175 17.5052-4.35071 18.4777-5.22085 18.9896-6.19336 18.9896-7.31943 18.9896-8.34312 18.5289-9.16208 17.6588-9.72511 17.0445-10.1346 15.509-10.6464 13.0521-11.2607 9.7763-12.0796 7.47298-12.7962 6.19336-13.4104 4.91374-14.0246 3.99241-14.8436 3.32701-15.9185 2.66161-16.9934 2.30332-18.1706 2.30332-19.5014 2.30332-20.6787 2.61042-21.7535 3.12227-22.7772 3.68531-23.8009 4.40189-24.6199 5.32322-25.2853 6.03981-25.7971 7.01232-26.2578 8.18957-26.6161 9.418-26.9744 10.6976-27.1279 12.0796-27.1279 14.1782-27.1279 16.0208-26.8208 17.6076-26.2578 19.1431-25.6436 20.3204-24.8246 21.0881-23.8009 21.8047-22.7772 22.3166-21.3952 22.6237-19.7061L18.2218-19.0919C18.017-20.4739 17.454-21.5488 16.4815-22.3166 15.509-23.0843 14.1782-23.4426 12.4379-23.4426 10.3393-23.4426 8.90615-23.0843 7.98483-22.4189 7.11469-21.7535 6.65402-20.9346 6.65402-20.0133 6.65402-19.4502 6.85876-18.8872 7.21706-18.4265 7.57535-17.9659 8.18957-17.5564 8.95734-17.2493 9.418-17.0957 10.6976-16.6862 12.8986-16.072 16.1232-15.2531 18.3242-14.5365 19.6038-14.0246 20.8322-13.4616 21.8047-12.6938 22.5213-11.6701 23.2379-10.5953 23.5962-9.31563 23.5962-7.78009 23.5962-6.29573 23.1867-4.86256 22.3166-3.58294 21.4464-2.25213 20.1668-1.22844 18.5289-0.511848 16.891 0.255924 14.9971 0.614218 12.8986 0.614218 9.46919 0.614218 6.85876-0.10237 5.01611-1.53554 3.22464-2.96872 2.09858-5.11848 1.58673-7.93364Z" fill="#000000" fill-rule="nonzero" fill-opacity="1" transform="matrix(1.01538 0 0 1 563.82 40.9239)"/><path d="M0.98568 0 0.98568-9.66777 2.26841-9.66777 2.26841-1.13421 7.03479-1.13421 7.03479 0 0.98568 0Z" fill="#000000" fill-rule="nonzero" fill-opacity="1" transform="matrix(1.01538 0 0 1 598.997 41.3752)"/><path d="M0.98568 0 0.98568-9.66777 2.26841-9.66777 2.26841-1.13421 7.03479-1.13421 7.03479 0 0.98568 0Z" fill="#000000" fill-rule="nonzero" fill-opacity="1" transform="matrix(1.01538 0 0 1 606.623 41.3752)"/><path d="M7.93945-3.38912 9.22219-3.06506C8.95214-2.01187 8.46605-1.21522 7.76392-0.661621 7.07529-0.10802 6.22464 0.16203 5.21195 0.16203 4.17226 0.16203 3.32161-0.0405074 2.67349-0.472586 2.02537-0.891163 1.52578-1.51228 1.18822-2.30892 0.837153-3.11907 0.675123-3.98323 0.675123-4.9014 0.675123-5.91408 0.864158-6.79174 1.25573-7.53438 1.6338-8.29051 2.1874-8.85762 2.88953-9.24919 3.60516-9.64076 4.3883-9.82979 5.23896-9.82979 6.19763-9.82979 7.02128-9.58675 7.6694-9.08716 8.33102-8.60107 8.79011-7.91245 9.04665-7.02128L7.79092-6.72423C7.57488-7.42636 7.23732-7.93945 6.81875-8.25001 6.38667-8.57407 5.86007-8.7361 5.21195-8.7361 4.46932-8.7361 3.8482-8.56056 3.34861-8.196 2.84902-7.84493 2.49796-7.37235 2.29542-6.76474 2.09288-6.17063 1.98486-5.54951 1.98486-4.9149 1.98486-4.09125 2.10638-3.37562 2.34943-2.7545 2.59247-2.14689 2.95704-1.68781 3.47013-1.39075 3.96973-1.0802 4.52333-0.93167 5.10393-0.93167 5.81956-0.93167 6.42717-1.13421 6.92677-1.55278 7.42636-1.95786 7.76392-2.57897 7.93945-3.38912Z" fill="#000000" fill-rule="nonzero" fill-opacity="1" transform="matrix(1.01538 0 0 1 614.241 41.3752)"/></g></g></svg>